<?xml version="1.0" standalone="no"?>
<!DOCTYPE svg PUBLIC "-//W3C//DTD SVG 20010904//EN"
 "http://www.w3.org/TR/2001/REC-SVG-20010904/DTD/svg10.dtd">
<svg version="1.0" xmlns="http://www.w3.org/2000/svg"
 width="500.000000pt" height="500.000000pt" viewBox="0 0 500.000000 500.000000"
 preserveAspectRatio="xMidYMid meet">

<g transform="translate(0.000000,500.000000) scale(0.100000,-0.100000)"
fill="#000000" stroke="none">
<path d="M1068 4229 c-31 -17 -48 -60 -62 -161 -31 -209 -41 -397 -41 -733 0
-331 1 -341 23 -389 12 -27 22 -54 22 -61 0 -25 27 -37 52 -24 13 7 50 16 83
20 33 3 87 12 120 19 87 18 386 9 439 -14 49 -20 46 -21 46 13 0 17 4 32 10
36 5 3 7 12 3 20 -4 11 -1 13 11 9 19 -7 20 -48 6 -309 -18 -326 -49 -975 -61
-1275 -14 -361 -4 -595 28 -638 25 -34 87 -40 177 -18 51 13 129 16 437 15
495 0 689 -10 749 -37 25 -11 62 -22 84 -24 33 -3 42 1 67 33 20 24 32 54 39
95 13 76 13 502 0 709 -5 88 -16 318 -25 510 -8 193 -20 388 -25 435 -12 99
-26 478 -17 470 3 -3 10 -57 16 -120 5 -63 18 -135 27 -160 9 -25 20 -70 23
-100 6 -47 8 -36 14 75 5 81 4 142 -2 163 -17 55 -4 89 38 104 55 20 394 17
442 -4 28 -12 40 -13 49 -5 6 7 37 12 68 12 50 0 58 3 68 25 27 55 53 480 30
480 -27 0 -48 91 -25 106 8 5 9 36 4 104 -4 68 -3 100 5 105 17 11 37 -12 44
-50 4 -19 12 -35 18 -35 22 0 -11 313 -51 482 -11 45 -46 104 -67 112 -9 3
-147 5 -307 4 l-292 -3 259 -2 c152 -2 264 -7 271 -13 13 -11 16 -29 50 -385
19 -194 21 -253 12 -262 -9 -8 -126 -12 -422 -14 -225 -1 -412 -4 -415 -5 -4
-2 -3 -42 1 -91 4 -48 13 -189 18 -313 6 -124 16 -315 21 -425 23 -469 49
-1092 52 -1245 l3 -165 -65 -6 c-120 -12 -1244 -10 -1279 2 -27 10 -31 15 -31
47 0 57 39 1061 50 1297 5 116 14 359 20 540 6 182 13 335 14 340 2 7 -140 10
-411 11 -359 0 -416 3 -429 16 -14 13 -14 28 -5 109 6 52 15 159 21 239 11
146 26 270 36 303 3 10 15 17 31 17 35 0 27 6 -17 13 -20 3 -43 1 -52 -4z
m771 -749 c-13 -16 -25 -28 -27 -25 -5 5 37 55 45 55 2 0 -6 -13 -18 -30z
m1351 -1 c6 -10 10 -21 10 -25 0 -10 -30 17 -41 37 -7 15 -6 17 6 13 9 -4 20
-15 25 -25z m-2152 -5 c-4 -32 -32 -54 -48 -38 -17 17 5 64 30 64 17 0 21 -5
18 -26z m762 -111 c0 -23 -4 -33 -9 -27 -9 8 -4 64 5 64 2 0 4 -17 4 -37z
m1435 -47 c10 -46 14 -83 9 -93 -6 -13 -9 -4 -12 31 -2 27 -10 59 -18 70 -15
22 -20 81 -6 72 5 -3 17 -39 27 -80z m-1435 -2073 c-1 -33 -24 -68 -39 -58
-15 9 -14 58 1 73 21 21 38 14 38 -15z m1470 8 c24 -47 4 -122 -29 -102 -14 9
-27 82 -18 106 9 21 34 19 47 -4z"/>
<path d="M3293 4223 c9 -2 23 -2 30 0 6 3 -1 5 -18 5 -16 0 -22 -2 -12 -5z"/>
<path d="M2488 4183 l-1326 -3 -6 -38 c-3 -20 -8 -82 -11 -137 -3 -55 -12
-158 -20 -230 -8 -71 -16 -147 -18 -167 l-3 -38 71 1 c38 1 58 4 42 6 -38 6
-34 21 6 18 17 -2 31 -8 29 -14 -1 -7 13 -11 35 -10 21 0 32 3 25 6 -23 9 -1
23 38 23 24 0 40 -5 44 -15 4 -12 24 -15 98 -13 56 1 73 3 43 5 -27 2 -54 8
-59 13 -14 14 14 82 48 118 47 51 84 69 192 98 119 32 166 54 181 87 9 19 21
26 55 29 62 7 79 -11 54 -57 -19 -35 -39 -44 -51 -25 -3 6 -12 10 -18 10 -7 0
-4 -5 6 -11 32 -19 18 -36 -48 -58 -36 -11 -73 -21 -82 -21 -9 0 -13 -3 -10
-6 4 -4 -28 -22 -70 -40 -89 -39 -116 -61 -131 -109 l-10 -35 136 1 c80 0 130
4 122 9 -12 7 -11 10 4 16 12 5 23 2 31 -9 8 -11 26 -17 49 -17 l37 0 -6 -107
c-8 -160 -24 -539 -35 -868 -6 -159 -15 -375 -20 -480 -5 -104 -12 -307 -15
-450 -3 -143 -8 -277 -11 -297 l-4 -38 70 0 c63 0 70 2 70 19 0 20 17 37 26
28 3 -3 1 -15 -6 -26 -9 -18 -8 -21 8 -21 13 0 22 12 31 42 16 52 40 90 53 82
5 -3 7 -12 4 -20 -3 -8 0 -11 9 -8 8 3 17 14 20 24 3 11 29 40 57 65 27 25 47
45 43 45 -3 0 -33 -25 -66 -57 -48 -45 -59 -52 -59 -36 0 35 92 104 169 128
16 5 21 4 17 -4 -9 -15 -12 -15 74 19 41 16 66 30 55 31 -41 2 70 29 144 33
72 5 73 5 21 -4 -30 -5 -75 -13 -100 -16 -40 -6 -42 -8 -20 -15 14 -4 39 -7
55 -7 29 1 29 1 -5 8 -21 5 -1 6 50 3 84 -6 121 -13 63 -13 -17 0 -52 -3 -78
-7 l-47 -6 28 -14 29 -13 -27 5 c-14 3 -37 1 -50 -4 l-23 -10 25 -1 c14 -1 35
-1 47 0 12 1 30 -3 39 -8 12 -7 0 -11 -44 -14 -60 -6 -172 -49 -193 -74 -17
-21 -34 -17 -18 4 13 15 12 16 -3 3 -10 -7 -16 -17 -13 -21 3 -4 -2 -13 -10
-20 -15 -13 -75 -103 -75 -113 0 -4 9 -7 20 -7 11 0 20 7 20 15 0 32 139 156
174 155 6 -1 0 -8 -14 -16 -14 -9 -17 -13 -7 -10 11 4 31 9 45 13 24 6 25 7 7
14 -13 6 -6 7 20 4 31 -4 36 -3 20 5 -19 9 -18 9 4 7 37 -3 39 -27 3 -27 -17
0 -56 -14 -88 -31 -47 -24 -54 -26 -39 -10 10 12 14 21 8 21 -5 0 -18 -9 -28
-20 -18 -20 -23 -33 -29 -73 -3 -22 -21 -40 -35 -36 -7 3 0 20 16 44 18 27 20
35 7 23 -10 -9 -27 -30 -37 -47 l-18 -31 91 0 c87 0 93 2 112 25 44 56 118 70
177 34 35 -21 37 -38 3 -20 -30 16 -49 14 -27 -3 17 -12 15 -13 -26 -13 -24 0
-52 -3 -61 -7 -11 -5 -18 -4 -18 2 0 6 12 15 28 21 26 11 26 11 -8 6 -19 -3
-43 -14 -53 -23 -17 -18 -5 -18 298 -21 l315 -2 0 48 c0 98 -32 849 -62 1448
-12 238 -13 251 -18 155 -4 -62 -6 -6 -5 135 0 132 -4 289 -8 348 l-9 108 432
-1 c237 -1 433 0 434 2 2 1 -3 66 -10 143 -6 77 -17 205 -24 285 -13 173 -17
191 -33 188 -6 -2 -609 -4 -1339 -5z m-779 -62 c11 -7 7 -14 -20 -30 -19 -12
-39 -21 -44 -21 -9 0 -44 21 -65 37 -22 19 101 32 129 14z m1189 -7 c19 -3 32
-11 32 -19 0 -17 -14 -19 -39 -6 -12 7 -30 4 -60 -10 -39 -17 -45 -18 -73 -3
-19 10 -42 14 -61 10 -17 -3 -36 -1 -44 5 -8 8 -30 9 -61 4 -26 -4 -126 -8
-222 -10 -96 -2 -188 -4 -204 -5 -35 -1 -69 26 -45 35 15 5 650 12 709 7 19
-1 50 -5 68 -8z m-1540 -11 c2 -9 -7 -13 -27 -13 -34 0 -50 16 -24 23 27 7 46
3 51 -10z m696 10 c8 -8 -81 -43 -97 -38 -55 20 -67 26 -62 35 7 11 148 14
159 3z m1179 1 c26 -4 44 -11 41 -15 -3 -5 -10 -6 -16 -3 -5 4 -28 1 -49 -6
-41 -14 -69 -4 -55 19 8 13 17 13 79 5z m145 -15 c-2 -6 -8 -10 -13 -10 -5 0
-11 4 -13 10 -2 6 4 11 13 11 9 0 15 -5 13 -11z m137 1 c-3 -5 -10 -10 -16
-10 -5 0 -9 5 -9 10 0 6 7 10 16 10 8 0 12 -4 9 -10z m235 -4 c0 -8 -7 -16
-15 -20 -10 -4 -15 1 -15 14 0 11 7 20 15 20 8 0 15 -6 15 -14z m-2048 -111
c14 -19 26 -24 40 -19 28 8 20 -14 -13 -39 -29 -21 -95 -33 -133 -23 -26 6
-66 42 -66 59 0 5 9 7 20 4 13 -3 20 0 20 9 0 8 5 14 11 14 6 0 18 7 26 16 22
22 70 11 95 -21z m268 15 c0 -19 -11 -26 -23 -14 -8 8 3 34 14 34 5 0 9 -9 9
-20z m1530 5 c0 -8 -7 -15 -15 -15 -8 0 -15 7 -15 15 0 8 7 15 15 15 8 0 15
-7 15 -15z m-675 -32 c16 -16 38 -33 50 -39 11 -6 19 -16 18 -22 -2 -7 3 -12
10 -12 7 -1 4 -6 -6 -15 -17 -12 -14 -14 30 -20 26 -4 52 -8 58 -9 5 -1 -32
-9 -82 -16 -51 -8 -90 -17 -87 -22 3 -5 49 -6 102 -3 83 4 91 3 57 -6 -22 -7
-94 -12 -160 -13 -114 -1 -122 0 -166 26 -28 17 -51 39 -59 58 -18 43 -6 48
29 11 34 -36 49 -41 27 -9 -9 12 -16 31 -16 42 0 18 1 18 18 3 24 -22 29 -21
35 3 4 14 10 18 22 14 10 -4 22 1 31 15 8 11 22 21 30 21 8 0 14 5 14 10 0 17
14 11 45 -17z m459 3 c27 -24 33 -50 16 -61 -5 -3 -7 -12 -3 -20 4 -12 -4 -15
-38 -15 -49 0 -109 31 -109 55 0 18 5 18 31 5 15 -9 19 -7 19 5 0 8 11 20 25
25 14 5 25 14 25 20 0 15 6 13 34 -14z m384 7 c-5 -25 -28 -28 -28 -4 0 12 6
21 16 21 9 0 14 -7 12 -17z m142 -3 c0 -5 -7 -10 -15 -10 -8 0 -15 5 -15 10 0
6 7 10 15 10 8 0 15 -4 15 -10z m-1472 -12 c-6 -18 -28 -21 -28 -4 0 9 7 16
16 16 9 0 14 -5 12 -12z m-1006 -57 l1 -36 4 38 c6 58 31 43 34 -21 1 -21 3
-18 8 11 7 46 23 49 35 8 10 -36 -12 -96 -48 -130 -29 -27 -111 -61 -148 -61
-26 0 -29 2 -18 15 9 11 10 15 1 15 -7 0 -11 10 -10 23 2 12 0 28 -5 35 -4 7
-2 19 4 27 9 11 9 15 1 15 -17 0 -12 43 8 68 11 12 22 22 25 22 3 0 6 -10 7
-22 0 -21 1 -21 8 -4 8 21 27 30 66 32 22 2 25 -2 27 -35z m2488 24 c16 -19
-3 -45 -32 -45 -27 0 -35 30 -13 46 24 18 30 17 45 -1z m-1734 -70 c-9 -46
-61 -104 -119 -133 -25 -13 -79 -29 -120 -37 -98 -19 -163 -50 -178 -87 -12
-29 -49 -40 -49 -14 0 46 108 109 224 131 118 23 160 53 186 131 6 19 15 32
20 29 4 -3 10 5 14 17 10 39 30 5 22 -37z m1482 21 c1 -26 -4 -35 -23 -44 -27
-13 -55 -6 -55 12 0 10 59 65 71 66 3 0 6 -15 7 -34z m-1733 -6 c-6 -10 -49
-31 -95 -45 -15 -5 -20 -4 -16 4 4 6 15 11 24 11 9 1 33 9 52 19 44 23 42 23
35 11z m1915 -5 c10 -12 10 -15 -4 -15 -9 0 -16 7 -16 15 0 8 2 15 4 15 2 0 9
-7 16 -15z m-2210 -39 c0 -17 -27 -28 -51 -21 -34 11 -22 35 16 35 23 0 35 -5
35 -14z m1705 -7 c10 -10 -39 -3 -85 13 -16 5 -8 6 25 2 28 -3 54 -10 60 -15z
m243 3 c3 -9 -2 -13 -14 -10 -9 1 -19 9 -22 16 -3 9 2 13 14 10 9 -1 19 -9 22
-16z m-1280 2 c18 -4 32 -14 35 -25 6 -23 27 -26 27 -4 0 24 81 19 142 -9 29
-13 70 -37 92 -55 21 -17 49 -31 62 -31 66 0 144 -62 144 -114 0 -30 -30 -76
-63 -96 -38 -24 -30 -26 19 -5 25 10 40 26 54 57 15 33 20 37 20 20 0 -44 -29
-83 -83 -108 -29 -13 -64 -24 -79 -24 -18 0 -28 -6 -29 -15 -3 -31 -4 -35 -14
-35 -10 0 -11 4 -14 35 0 9 -11 15 -26 15 -41 0 -93 31 -110 66 -20 43 -20
108 2 125 14 12 16 12 8 0 -6 -10 -4 -12 4 -7 7 4 10 13 8 19 -2 7 3 18 12 25
14 11 14 11 -1 6 -10 -3 -31 4 -50 19 -52 39 -90 55 -168 71 -40 9 -75 17 -77
19 -2 2 1 16 6 31 11 27 25 31 79 20z m330 -22 c6 -19 -13 -14 -33 8 -18 20
-18 21 5 12 13 -5 26 -14 28 -20z m-891 -4 c-107 -33 -197 -123 -197 -198 0
-21 -5 -30 -16 -30 -21 0 -14 53 16 115 34 70 142 133 230 133 29 1 24 -3 -33
-20z m1573 -8 c23 -7 22 -8 -10 -8 -19 0 -46 4 -60 8 -23 7 -22 8 10 8 19 0
46 -4 60 -8z m454 4 c28 -11 20 -66 -14 -96 -17 -15 -26 -29 -20 -33 17 -11
11 -25 -10 -25 -31 0 -98 37 -110 61 -17 30 -4 36 24 10 l23 -22 -5 28 c-5 25
-4 27 11 14 15 -12 17 -11 17 12 0 18 8 31 28 41 31 18 35 18 56 10z m-1456
-70 c52 -11 84 -25 108 -46 46 -41 43 -56 -3 -20 -25 19 -69 38 -125 52 -49
13 -88 27 -88 32 0 5 8 7 18 4 9 -3 50 -13 90 -22z m719 10 c-3 -3 -12 -4 -19
-1 -8 3 -5 6 6 6 11 1 17 -2 13 -5z m296 -57 c48 -20 97 -67 97 -93 0 -24 -24
-15 -42 15 -20 35 -72 64 -150 82 -32 8 -58 16 -58 20 0 12 106 -4 153 -24z
m-1333 -6 c0 -11 -59 -26 -67 -17 -6 6 33 24 55 25 6 1 12 -3 12 -8z m-740
-25 c-1 -16 -29 -51 -35 -44 -11 10 6 55 21 55 8 0 14 -5 14 -11z m660 4 c0
-5 -9 -10 -21 -10 -11 0 -17 5 -14 10 3 6 13 10 21 10 8 0 14 -4 14 -10z m344
-6 c70 -18 106 -38 106 -59 0 -10 -10 -15 -30 -15 -16 0 -30 -4 -30 -10 0 -5
13 -7 28 -4 30 6 63 -18 42 -31 -6 -3 -8 -10 -6 -14 3 -4 6 -43 7 -86 2 -80 2
-80 -24 -83 -26 -3 -27 -1 -27 42 0 26 5 46 13 50 8 3 6 10 -8 22 -17 14 -17
16 -2 11 9 -4 17 -2 17 3 0 6 -7 10 -15 10 -8 0 -24 14 -34 31 -25 40 -62 65
-128 84 -29 9 -53 18 -53 20 0 7 63 45 74 45 4 0 36 -7 70 -16z m-859 -4 c17
-28 -41 -52 -74 -31 -12 8 -12 12 -2 25 15 18 66 22 76 6z m1945 -26 c17 -15
29 -29 26 -32 -3 -2 -21 9 -41 27 -43 37 -30 42 15 5z m-437 -11 c-9 -16 -18
-29 -19 -31 -1 -2 -5 1 -8 7 -4 6 2 19 14 31 28 28 34 25 13 -7z m787 17 c4 0
10 -9 13 -19 5 -22 -10 -31 -55 -31 -23 0 -29 4 -24 16 4 12 1 14 -14 9 -32
-10 -23 5 13 20 17 8 38 12 45 10 8 -3 17 -5 22 -5z m-1887 -26 c-9 -15 -19
-21 -21 -15 -4 13 16 41 29 41 5 0 2 -12 -8 -26z m342 -18 c56 -7 130 -72 141
-124 3 -15 7 -35 9 -44 2 -10 0 -20 -5 -23 -4 -3 -11 12 -15 33 -7 42 -68 112
-97 112 -9 0 -33 9 -53 20 -20 11 -55 20 -78 21 -33 0 -38 2 -22 9 11 5 38 7
60 4 22 -3 49 -7 60 -8z m1045 4 c0 -5 -16 -10 -35 -10 -19 0 -35 5 -35 10 0
6 16 10 35 10 19 0 35 -4 35 -10z m-180 -4 c0 -3 -4 -8 -10 -11 -5 -3 -10 -1
-10 4 0 6 5 11 10 11 6 0 10 -2 10 -4z m-553 -102 c-2 -2 -12 3 -23 11 -16 11
-20 21 -16 47 l5 33 19 -44 c10 -24 17 -45 15 -47z m613 79 c-1 -21 -23 -38
-67 -49 -64 -17 -63 -18 -50 10 11 22 16 24 54 19 36 -5 43 -3 43 11 0 9 5 16
10 16 6 0 10 -3 10 -7z m-673 -165 c-2 -29 -3 -8 -3 47 0 55 1 79 3 53 2 -26
2 -71 0 -100z m-219 108 c57 -30 74 -59 76 -133 3 -95 -2 -113 -30 -113 -12 0
-25 4 -29 10 -3 5 -12 7 -20 3 -12 -4 -15 6 -15 53 0 38 -5 63 -16 75 -9 10
-18 36 -21 58 -5 37 -4 39 16 34 28 -7 27 5 -1 17 -18 7 -19 9 -5 9 10 1 30
-5 45 -13z m892 -46 c0 -36 -4 -44 -45 -72 -56 -40 -65 -66 -64 -196 0 -57 -4
-109 -9 -115 -10 -11 -88 -15 -98 -5 -2 3 -5 64 -5 137 -1 127 0 133 26 172
14 23 29 38 32 35 8 -8 34 14 28 24 -7 11 19 30 62 46 64 22 73 19 73 -26z
m-140 -24 c0 -3 -4 -8 -10 -11 -5 -3 -10 -1 -10 4 0 6 5 11 10 11 6 0 10 -2
10 -4z m136 -52 c-1 -8 -15 -25 -30 -38 l-28 -22 1 -232 c2 -263 3 -260 -78
-335 -70 -66 -71 -59 -1 11 42 43 60 69 65 96 4 20 2 113 -4 205 -16 247 -18
234 30 286 46 50 48 51 45 29z m-931 -14 c3 -5 1 -10 -4 -10 -6 0 -11 5 -11
10 0 6 2 10 4 10 3 0 8 -4 11 -10z m152 -27 c-3 -10 -5 -4 -5 12 0 17 2 24 5
18 2 -7 2 -21 0 -30z m816 -23 c4 -36 3 -46 -3 -30 -8 25 -13 97 -6 89 2 -2 6
-29 9 -59z m-281 -12 c-2 -35 -9 -67 -14 -73 -11 -10 -4 88 8 119 10 25 11 20
6 -46z m-191 25 c18 -18 3 -40 -31 -48 -37 -8 -64 10 -56 37 4 16 2 17 -10 7
-23 -19 -16 -39 19 -54 22 -10 26 -14 13 -15 -21 0 -56 27 -56 43 0 6 7 18 16
28 17 19 87 20 105 2z m-261 -13 c0 -61 78 -144 131 -139 73 6 110 -1 136 -28
14 -16 29 -27 34 -26 4 2 6 -3 3 -11 -4 -10 -11 -8 -29 10 -27 27 -38 29 -53
11 -7 -8 -6 -18 4 -31 14 -19 14 -19 14 2 0 12 5 22 11 22 6 0 8 -7 5 -17 -4
-9 -2 -19 3 -22 5 -3 11 -15 13 -26 2 -15 -6 -23 -32 -32 l-35 -13 45 5 45 5
-35 -14 c-43 -18 -121 -20 -154 -4 -14 6 -32 21 -40 33 -15 22 -11 75 6 75 5
0 6 5 3 10 -4 6 -1 9 6 8 6 -2 14 3 17 11 3 11 0 12 -14 6 -31 -12 -49 -11
-46 3 1 8 -2 11 -8 7 -7 -4 -23 4 -38 16 -21 19 -23 19 -9 3 9 -11 14 -24 10
-29 -5 -4 -3 -5 4 -1 6 3 15 1 18 -5 5 -7 -2 -9 -21 -7 -15 2 -30 9 -32 17 -3
9 0 11 8 6 8 -5 11 -4 6 3 -3 6 -14 9 -24 7 -12 -2 -18 3 -18 15 0 10 3 18 6
18 25 -2 33 3 22 14 -7 7 -12 36 -12 65 0 50 1 53 25 53 18 0 25 -5 25 -20z
m56 -56 c13 -9 24 -20 24 -26 0 -5 -10 0 -22 11 -11 11 -25 18 -30 15 -4 -3
-7 14 -6 38 1 37 2 38 5 10 3 -20 13 -38 29 -48z m627 64 c-4 -7 -11 -38 -14
-68 l-6 -55 -2 56 c0 31 4 60 11 67 16 16 21 15 11 0z m-956 -30 c-3 -8 -6 -5
-6 6 -1 11 2 17 5 13 3 -3 4 -12 1 -19z m190 -40 c-2 -13 -4 -3 -4 22 0 25 2
35 4 23 2 -13 2 -33 0 -45z m284 -24 l44 -14 -45 6 c-53 7 -90 28 -90 51 0 14
4 13 24 -6 13 -12 43 -29 67 -37z m130 28 c-10 -19 -40 -37 -48 -28 -3 2 5 7
16 11 11 3 23 15 26 26 4 11 9 18 12 16 2 -3 0 -14 -6 -25z m49 -16 c0 -16
-95 -88 -104 -79 -3 4 17 19 44 35 28 16 50 35 50 43 0 8 2 15 5 15 3 0 5 -6
5 -14z m-495 -6 c3 -5 1 -10 -4 -10 -41 0 26 -94 97 -135 31 -19 37 -35 16
-42 -15 -5 -160 93 -168 112 -3 9 -6 32 -6 51 0 31 3 34 29 34 17 0 33 -4 36
-10z m-88 -72 c-3 -8 -6 -5 -6 6 -1 11 2 17 5 13 3 -3 4 -12 1 -19z m42 -57
c-6 -2 -18 4 -27 13 -15 15 -15 15 10 4 15 -7 23 -15 17 -17z m196 9 c-3 -5
-14 -10 -23 -10 -15 0 -15 2 -2 10 20 13 33 13 25 0z m349 -16 c10 -25 7 -147
-4 -164 -6 -10 -8 3 -5 40 3 41 2 48 -4 25 -7 -26 -9 -22 -10 27 0 31 -4 63
-7 72 -4 10 -1 16 9 16 8 0 18 -7 21 -16z m-424 -61 c0 -7 -61 31 -73 46 -7 8
7 2 31 -14 23 -15 42 -30 42 -32z m717 15 c-3 -7 -5 -2 -5 12 0 14 2 19 5 13
2 -7 2 -19 0 -25z m-685 -102 c88 -70 111 -107 114 -179 l3 -62 -13 65 c-12
56 -20 69 -59 105 -59 52 -101 83 -123 92 -11 3 18 -21 63 -55 91 -68 98 -77
107 -143 6 -41 4 -46 -18 -58 -21 -12 -23 -17 -14 -37 13 -28 0 -49 -38 -58
-48 -12 -83 26 -49 54 17 14 11 30 -12 30 -26 0 -53 -31 -53 -60 0 -29 21 -53
60 -69 23 -9 23 -10 4 -10 -36 -1 -74 36 -74 73 0 17 5 37 12 44 9 9 9 15 0
24 -7 7 -12 20 -12 29 0 10 -12 31 -26 46 -24 27 -25 27 -13 3 9 -19 9 -22 0
-14 -7 6 -13 19 -15 27 -1 9 -13 29 -27 43 -37 41 6 15 55 -33 33 -31 37 -33
23 -10 -10 15 -14 27 -11 27 4 0 -13 14 -37 31 -59 42 -69 52 -44 44 17 -6 16
-3 -5 15 -19 17 -11 14 30 -9 30 -16 55 -34 55 -40 0 -5 4 -13 9 -18 5 -5 6
-2 1 6 -5 9 -3 12 6 9 8 -3 13 -10 12 -16 -1 -5 5 -16 15 -24 16 -12 16 -11 2
7 -14 19 -14 19 3 6 10 -8 23 -24 29 -35 10 -19 10 -20 -6 -7 -14 12 -16 12
-10 -3 3 -9 10 -16 15 -16 5 0 9 -9 9 -20 0 -32 -17 -23 -30 14 -6 19 -19 40
-28 48 -15 11 -15 11 -6 -2 24 -32 35 -82 21 -98 -10 -14 -9 -15 8 -7 11 5 47
12 80 15 33 4 51 8 40 10 -11 1 -27 2 -36 1 -12 -1 -20 12 -28 42 -6 24 -17
50 -26 57 -8 7 -13 16 -10 20 3 4 -3 14 -12 21 -12 10 -14 10 -9 2 4 -7 3 -13
-3 -13 -10 0 -26 19 -26 32 0 3 -4 10 -9 15 -5 5 -6 2 -1 -6 5 -9 3 -12 -6 -9
-8 3 -13 11 -11 17 1 7 -2 10 -8 6 -11 -7 -84 34 -76 43 3 3 -2 11 -12 19 -16
12 -16 13 3 7 20 -6 20 -5 1 10 -11 9 -14 16 -7 16 7 0 9 4 6 10 -4 6 1 7 12
4 16 -5 16 -4 -1 10 -11 9 -14 16 -7 16 7 0 9 5 5 11 -12 20 150 -70 208 -115z
m598 74 c0 -18 -7 -20 -55 -20 -48 0 -55 2 -55 20 0 18 7 20 55 20 48 0 55 -2
55 -20z m157 -67 c-3 -10 -5 -4 -5 12 0 17 2 24 5 18 2 -7 2 -21 0 -30z m-190
-55 c-2 -18 -4 -6 -4 27 0 33 2 48 4 33 2 -15 2 -42 0 -60z m-70 25 c-3 -10
-5 -2 -5 17 0 19 2 27 5 18 2 -10 2 -26 0 -35z m90 -20 c-2 -16 -4 -5 -4 22 0
28 2 40 4 28 2 -13 2 -35 0 -50z m-90 -40 c-3 -10 -5 -4 -5 12 0 17 2 24 5 18
2 -7 2 -21 0 -30z m-372 17 c3 -5 2 -10 -4 -10 -5 0 -13 5 -16 10 -3 6 -2 10
4 10 5 0 13 -4 16 -10z m392 -32 c-3 -7 -5 -2 -5 12 0 14 2 19 5 13 2 -7 2
-19 0 -25z m-67 -2 c0 -2 -8 -10 -17 -17 -16 -13 -17 -12 -4 4 13 16 21 21 21
13z m-80 -10 c0 -2 -8 -10 -17 -17 -16 -13 -17 -12 -4 4 13 16 21 21 21 13z
m142 -11 c11 2 15 -2 11 -12 -5 -12 -7 -12 -14 -1 -7 11 -9 11 -9 -1 0 -7 -6
-11 -14 -8 -8 3 -22 -1 -33 -8 -14 -11 -15 -14 -3 -15 13 0 13 -2 1 -9 -8 -5
-21 -7 -30 -3 -9 3 -13 2 -9 -2 5 -6 16 -10 47 -15 3 -1 -4 -7 -14 -15 -20
-14 -40 -12 -30 4 3 5 0 12 -6 16 -8 5 -9 3 -4 -6 5 -9 4 -11 -4 -6 -6 4 -14
1 -17 -8 -3 -8 -13 -12 -22 -9 -14 4 -15 3 -2 -5 8 -6 18 -8 22 -6 19 12 5 -9
-27 -42 -20 -19 -34 -42 -33 -51 2 -9 -3 -18 -10 -20 -19 -7 4 47 36 80 25 27
19 39 -8 15 -12 -11 -12 -10 -2 3 11 14 9 17 -13 17 -20 0 -23 -3 -15 -13 8
-10 7 -15 -2 -21 -7 -4 -10 -4 -6 1 4 4 3 14 -3 21 -7 9 -6 14 3 20 7 4 24 15
38 23 19 13 22 13 15 2 -6 -11 -4 -13 8 -8 27 10 117 81 117 92 0 6 3 6 8 -1
4 -6 15 -10 24 -9z m-273 -9 c-2 -3 -23 -11 -47 -19 -34 -12 -42 -12 -42 -1 0
11 13 15 79 22 8 1 12 0 10 -2z m55 -11 c-4 -8 -8 -15 -10 -15 -2 0 -4 7 -4
15 0 8 4 15 10 15 5 0 7 -7 4 -15z m-29 -5 c-3 -5 -14 -10 -23 -9 -14 0 -13 2
3 9 27 11 27 11 20 0z m65 6 c0 -2 -7 -9 -15 -16 -13 -11 -14 -10 -9 4 5 14
24 23 24 12z m25 -22 c-31 -24 -55 -36 -55 -27 0 4 15 16 33 25 40 21 48 22
22 2z m362 -31 c-3 -20 -9 -27 -22 -25 -9 2 -14 -1 -11 -6 3 -5 -7 -14 -22
-21 -24 -11 -22 -8 11 22 42 38 44 44 20 50 -13 3 -12 5 5 6 19 1 22 -3 19
-26z m-492 -23 c3 -5 1 -10 -4 -10 -6 0 -11 5 -11 10 0 6 2 10 4 10 3 0 8 -4
11 -10z m189 -21 c-6 -11 -1 -11 20 -3 9 3 13 10 10 15 -3 5 -3 9 0 9 3 0 7
-4 11 -10 3 -5 -7 -16 -23 -24 -21 -11 -29 -11 -29 -3 0 7 -4 21 -9 32 -7 18
-6 18 9 6 9 -7 14 -17 11 -22z m373 -11 c-3 -7 -5 -2 -5 12 0 14 2 19 5 13 2
-7 2 -19 0 -25z m-988 -17 c-2 -6 -10 2 -17 17 -11 25 -11 25 4 10 9 -9 15
-21 13 -27z m296 19 c-3 -5 -11 -10 -16 -10 -6 0 -7 5 -4 10 3 6 11 10 16 10
6 0 7 -4 4 -10z m-129 -26 c-22 -22 -20 -49 7 -67 18 -13 19 -16 5 -16 -19 -1
-38 27 -38 56 0 20 18 43 33 43 5 0 1 -7 -7 -16z m335 -11 c13 -16 12 -17 -3
-4 -16 12 -18 11 -18 -8 0 -12 4 -20 9 -17 5 4 7 -4 3 -16 -5 -22 -6 -21 -15
5 -8 25 -4 57 6 57 3 0 11 -8 18 -17z m159 12 c0 -2 -10 -9 -22 -15 -22 -11
-22 -10 -4 4 21 17 26 19 26 11z m235 -5 c4 -6 10 -8 15 -5 18 11 21 -17 3
-37 -18 -21 -18 -21 2 -15 20 6 20 6 0 -6 -11 -7 -34 -26 -52 -43 -34 -33 -43
-33 -19 1 7 11 14 24 14 30 0 5 6 11 13 14 7 2 9 -1 5 -8 -5 -7 -1 -8 10 -4
11 4 13 8 6 11 -7 2 -10 7 -7 11 2 5 -2 16 -9 27 -12 16 -16 16 -30 5 -9 -8
-14 -16 -11 -19 2 -3 11 1 20 8 10 8 15 9 15 1 0 -6 -5 -11 -11 -11 -5 0 -7
-5 -4 -10 4 -6 3 -10 -2 -9 -29 5 -36 -2 -17 -17 18 -15 18 -15 -3 -4 -18 8
-22 8 -18 -2 3 -7 -4 -24 -14 -37 l-19 -25 2 32 c1 20 9 38 24 48 12 8 20 20
16 25 -6 10 -58 -26 -60 -42 -1 -5 -3 -73 -5 -151 l-3 -143 -6 145 -5 145 34
32 c18 18 38 30 42 27 5 -3 9 -1 9 4 0 8 36 30 52 31 4 1 10 -4 13 -9z m-844
-17 c13 -17 13 -17 -6 -3 -11 8 -22 16 -24 17 -2 2 0 3 6 3 6 0 17 -8 24 -17z
m547 -23 c-7 -11 -17 -20 -22 -20 -5 0 -1 9 9 20 10 11 20 20 22 20 2 0 -2 -9
-9 -20z m-211 -22 c-3 -7 -5 -2 -5 12 0 14 2 19 5 13 2 -7 2 -19 0 -25z m-47
3 c-13 -25 -49 -51 -70 -51 -8 1 -1 7 17 15 17 7 36 23 43 34 6 12 13 21 16
21 2 0 0 -9 -6 -19z m127 -13 c-3 -8 -6 -5 -6 6 -1 11 2 17 5 13 3 -3 4 -12 1
-19z m500 -25 c-3 -10 -5 -2 -5 17 0 19 2 27 5 18 2 -10 2 -26 0 -35z m-536
-14 c-9 -22 -10 -22 -10 -3 -1 11 2 24 6 27 12 12 14 0 4 -24z m-410 -3 c1 5
1 13 0 18 -1 5 5 3 14 -4 8 -7 13 -15 11 -18 -3 -2 5 -19 18 -36 34 -46 42
-61 26 -51 -10 6 -12 4 -7 -9 4 -10 7 -27 8 -39 1 -20 2 -20 9 3 7 19 8 14 5
-20 -11 -120 -13 -194 -5 -170 5 15 8 19 9 8 1 -9 4 -25 7 -35 5 -15 4 -16 -6
-3 -9 13 -11 12 -8 -5 2 -11 10 -20 18 -20 8 -1 14 -6 12 -13 -1 -7 4 -12 10
-12 16 0 239 -112 234 -117 -2 -2 -53 20 -112 50 -124 62 -161 76 -149 57 5
-8 4 -11 -3 -6 -6 4 -9 13 -5 21 6 18 -13 20 -20 3 -4 -10 -8 -10 -15 0 -5 8
-13 13 -18 11 -4 -1 -17 10 -28 24 -17 23 -18 29 -7 40 11 10 13 9 8 -5 -3
-10 -1 -20 5 -24 6 -4 8 -3 5 2 -3 6 -2 16 4 24 7 13 9 13 9 0 0 -13 1 -13 10
0 8 12 10 10 8 -10 -2 -14 2 -25 7 -25 6 0 9 7 7 15 -1 8 -9 67 -17 130 l-14
115 4 -105 c2 -60 1 -99 -4 -91 -7 11 -9 11 -14 0 -3 -8 -7 11 -8 41 l-2 55
-7 -55 c-6 -51 -7 -49 -8 33 -1 48 2 87 7 87 5 0 12 -12 14 -27 3 -20 4 -16 6
14 1 39 -13 67 -21 42 -2 -7 -12 1 -22 16 -10 15 -13 24 -6 20 8 -5 11 -3 8 6
-3 8 -11 13 -17 11 -7 -1 -10 2 -6 8 4 6 3 16 -2 23 -4 7 4 -1 19 -18 15 -16
28 -25 28 -19 0 5 -5 15 -11 21 -6 6 -12 23 -14 39 -2 26 -2 27 11 9 8 -10 15
-15 15 -9z m686 18 c-3 -3 -12 -4 -19 -1 -8 3 -5 6 6 6 11 1 17 -2 13 -5z
m121 -20 c-7 -15 -14 -21 -16 -15 -2 7 2 18 8 26 18 22 21 18 8 -11z m80 -1
c-15 -16 -28 -39 -31 -53 l-4 -25 -2 26 c0 16 9 36 25 53 35 35 45 34 12 -1z
m-398 2 c0 -5 5 -3 10 5 8 13 10 12 10 -2 0 -14 -9 -18 -40 -18 -33 0 -38 3
-29 13 15 15 49 17 49 2z m0 -34 c14 -4 25 -12 25 -18 0 -6 4 -15 9 -20 5 -4
6 -3 2 4 -3 6 -1 15 5 19 7 4 9 3 6 -3 -4 -6 0 -13 7 -16 8 -3 20 -16 26 -28
8 -15 9 -19 1 -15 -6 4 -11 3 -11 -3 0 -5 4 -12 9 -15 5 -3 11 -15 14 -26 3
-13 1 -18 -6 -13 -7 4 -8 0 -3 -12 4 -13 -2 -27 -21 -47 -15 -15 -22 -28 -17
-28 19 0 56 48 64 82 7 28 8 29 9 8 4 -90 -135 -155 -259 -120 -72 20 -121
128 -84 185 9 14 21 22 27 18 6 -4 8 0 4 10 -3 9 -3 16 1 16 22 -4 42 2 37 11
-4 6 7 8 27 5 26 -4 29 -3 13 4 -15 7 -7 10 35 9 30 0 66 -3 80 -7z m-391 -50
c0 -14 -1 -14 -6 -1 -3 8 -13 24 -22 35 -16 20 -16 20 7 1 12 -11 22 -26 21
-35z m668 7 c-3 -7 -5 -2 -5 12 0 14 2 19 5 13 2 -7 2 -19 0 -25z m180 -20
c-2 -13 -4 -5 -4 17 -1 22 1 32 4 23 2 -10 2 -28 0 -40z m-330 20 c-3 -8 -6
-5 -6 6 -1 11 2 17 5 13 3 -3 4 -12 1 -19z m-503 -43 c3 -8 1 -15 -4 -15 -6 0
-10 7 -10 15 0 8 2 15 4 15 2 0 6 -7 10 -15z m603 -72 c-3 -10 -5 -2 -5 17 0
19 2 27 5 18 2 -10 2 -26 0 -35z m-527 -49 c0 -30 5 -65 11 -77 9 -17 9 -19
-1 -11 -23 22 -40 144 -20 144 6 0 10 -25 10 -56z m480 41 c0 -8 -4 -15 -10
-15 -5 0 -10 7 -10 15 0 8 5 15 10 15 6 0 10 -7 10 -15z m134 -66 c-20 -22
-27 -49 -14 -49 5 0 22 14 39 31 22 22 31 26 31 15 0 -19 -59 -58 -77 -51 -7
2 -26 -1 -43 -7 -51 -17 -58 6 -8 27 53 23 79 44 71 58 -4 6 -1 7 6 3 9 -6 8
-13 -5 -27z m-631 -44 c5 -28 4 -34 -3 -20 -8 19 -14 73 -6 64 2 -2 6 -22 9
-44z m737 2 c0 -2 -10 -12 -22 -23 l-23 -19 19 23 c18 21 26 27 26 19z m87
-44 c-3 -10 -5 -2 -5 17 0 19 2 27 5 18 2 -10 2 -26 0 -35z m-854 7 c10 -16
16 -30 14 -30 -2 0 -13 14 -25 30 -13 17 -19 30 -14 30 4 0 16 -13 25 -30z
m-144 -45 c32 -35 80 -68 67 -47 -8 13 52 13 77 0 10 -5 14 -14 11 -20 -4 -7
-3 -8 4 -4 6 4 24 0 39 -9 27 -15 27 -16 3 -10 -19 5 -22 4 -10 -4 8 -6 28
-11 43 -11 55 0 126 -49 145 -100 11 -28 -5 -81 -28 -95 -7 -4 -4 5 5 21 l17
29 -20 -25 c-11 -13 -20 -29 -19 -34 1 -4 -4 -11 -12 -14 -8 -3 -11 0 -7 7 5
7 1 9 -9 4 -13 -4 -14 -8 -4 -14 8 -4 -13 -6 -46 -4 -50 3 -53 3 -20 -4 l40
-8 -40 -1 c-35 0 -105 14 -81 17 5 1 -6 11 -25 24 -33 22 -34 26 -34 86 0 61
0 62 -17 41 -38 -46 -12 -126 50 -156 87 -41 205 -24 257 37 29 35 32 67 9
112 l-15 32 26 -29 c22 -24 26 -36 21 -65 -12 -76 -79 -123 -184 -129 -108 -7
-187 37 -199 112 -7 43 15 90 55 120 14 11 22 14 18 7 -5 -8 0 -10 19 -7 15 3
30 8 34 12 3 4 -1 5 -10 2 -8 -3 -26 0 -39 7 -17 9 -30 10 -42 4 -19 -10 -56
5 -111 43 -25 18 -30 47 -5 32 7 -5 8 -2 3 5 -4 7 -9 34 -10 60 -2 25 0 38 3
29 4 -10 22 -33 41 -53z m728 9 c-3 -3 -12 -4 -19 -1 -8 3 -5 6 6 6 11 1 17
-2 13 -5z m-54 -11 c-7 -2 -19 -2 -25 0 -7 3 -2 5 12 5 14 0 19 -2 13 -5z
m182 -3 c-11 -5 -29 -8 -40 -8 -16 0 -15 2 5 8 34 11 60 11 35 0z m-65 -21
c18 -6 11 -7 -25 -3 -36 3 -46 2 -35 -5 8 -6 31 -11 50 -12 l35 -1 -35 -13
-35 -14 38 5 c23 4 37 2 37 -5 0 -6 8 -8 18 -4 14 5 15 3 5 -7 -8 -9 -16 -10
-25 -4 -7 6 -29 7 -48 3 l-35 -6 32 -2 c17 0 35 -6 38 -12 5 -7 -5 -8 -32 -4
-29 5 -34 4 -23 -5 12 -8 10 -9 -10 -5 -15 3 -56 -6 -104 -24 -90 -34 -91 -26
-1 13 72 30 58 35 -16 5 -46 -17 -51 -18 -38 -3 13 16 12 16 -9 5 -13 -7 -26
-10 -29 -8 -3 3 12 15 34 27 21 12 29 18 18 15 -48 -16 -47 -14 4 10 32 15 62
23 75 20 19 -5 19 -5 3 5 -13 9 -27 9 -49 1 -17 -6 -33 -9 -35 -7 -4 4 70 30
112 39 31 7 58 6 85 -4z m104 -8 c3 -4 -14 -7 -37 -7 -23 -1 -32 1 -19 3 12 3
20 8 17 13 -3 4 4 6 15 3 11 -3 22 -8 24 -12z m103 -133 c-2 -29 -3 -8 -3 47
0 55 1 79 3 53 2 -26 2 -71 0 -100z m-998 42 c40 -20 42 -23 27 -38 -14 -15
-19 -14 -52 1 -20 10 -34 21 -30 24 3 3 1 12 -5 20 -6 7 -8 13 -4 13 4 0 1 8
-6 18 -13 16 -12 16 6 1 11 -9 40 -27 64 -39z m409 20 c-7 -10 -14 -17 -17
-15 -4 4 18 35 25 35 2 0 -1 -9 -8 -20z m81 -24 c-24 -25 -46 -42 -49 -39 -4
4 79 83 89 83 2 0 -15 -20 -40 -44z m370 0 c-2 -2 -42 -12 -89 -21 -47 -9 -97
-24 -112 -31 -33 -17 -38 -10 -5 8 34 19 222 59 206 44z m118 -38 c-3 -7 -5
-2 -5 12 0 14 2 19 5 13 2 -7 2 -19 0 -25z m-998 -9 c17 -6 31 -15 31 -20 0
-13 -10 -11 -50 11 -39 21 -30 26 19 9z m924 4 c-7 -2 -19 -2 -25 0 -7 3 -2 5
12 5 14 0 19 -2 13 -5z m-78 -11 c-27 -4 -28 -5 -10 -13 14 -6 4 -8 -30 -4
-27 2 -43 1 -34 -3 14 -6 9 -11 -20 -25 l-36 -17 24 20 c13 11 17 20 10 20 -7
0 -9 3 -6 7 9 8 75 21 107 20 20 0 19 -1 -5 -5z m-336 -25 c0 -9 -2 -8 -6 1
-2 6 -10 9 -15 6 -7 -4 -8 -2 -4 5 9 13 26 5 25 -12z m221 -2 c0 -2 -10 -9
-22 -15 -22 -11 -22 -10 -4 4 21 17 26 19 26 11z m-213 -97 c-2 -18 -4 -6 -4
27 0 33 2 48 4 33 2 -15 2 -42 0 -60z m170 40 c-3 -8 -6 -5 -6 6 -1 11 2 17 5
13 3 -3 4 -12 1 -19z m142 18 c-2 -2 -15 -9 -29 -15 -24 -11 -24 -11 -6 3 16
13 49 24 35 12z m26 -35 c-22 -10 -48 -26 -58 -35 -9 -10 -17 -13 -17 -7 0 10
44 44 70 54 37 14 41 5 5 -12z m-138 -47 c-3 -3 -40 -11 -60 -13 -5 -1 -5 -5
-2 -11 3 -5 2 -10 -3 -10 -5 0 -12 9 -15 19 -3 15 1 21 17 23 23 4 69 -2 63
-8z m-697 -16 c0 -5 -9 -4 -20 2 -11 6 -20 12 -20 14 0 2 9 2 20 -1 11 -3 20
-9 20 -15z m839 -36 c-102 -77 -123 -91 -154 -97 l-30 -6 30 14 c38 18 185
123 180 129 -2 2 5 4 16 5 12 1 -3 -15 -42 -45z m-344 18 c3 -5 1 -10 -4 -10
-6 0 -11 5 -11 10 0 6 2 10 4 10 3 0 8 -4 11 -10z m502 -32 c-3 -8 -6 -5 -6 6
-1 11 2 17 5 13 3 -3 4 -12 1 -19z m-787 8 c0 -3 -4 -8 -10 -11 -5 -3 -10 -1
-10 4 0 6 5 11 10 11 6 0 10 -2 10 -4z m654 -8 c-5 -7 -2 -9 8 -5 27 10 40
-14 20 -36 -16 -19 -16 -20 6 -8 22 11 22 11 10 -8 -14 -23 -66 -51 -95 -51
-10 0 -35 -9 -56 -20 -45 -24 -54 -25 -33 -4 9 8 14 20 11 25 -4 5 2 6 12 2
15 -6 16 -4 5 9 -10 13 -6 19 28 42 23 15 45 24 49 21 5 -2 15 3 22 13 13 16
12 16 -6 2 -20 -15 -20 -14 -1 8 20 23 32 30 20 10z m-872 -8 c21 -6 40 -16
44 -22 5 -7 3 -8 -6 -3 -7 4 -33 13 -59 20 -25 7 -39 14 -31 14 8 1 32 -4 52
-9z m-14 -73 c3 -12 -3 -17 -21 -17 -31 0 -40 10 -25 27 15 18 42 12 46 -10z
m539 17 c-3 -3 -12 -4 -19 -1 -8 3 -5 6 6 6 11 1 17 -2 13 -5z m441 -16 c-2
-6 -10 -14 -16 -16 -7 -2 -10 2 -6 12 7 18 28 22 22 4z m-331 -14 c-3 -3 -12
-4 -19 -1 -8 3 -5 6 6 6 11 1 17 -2 13 -5z m-537 -19 c-7 -8 -21 -15 -32 -15
-14 0 -18 -5 -14 -18 4 -11 -1 -25 -13 -36 -23 -21 -131 -86 -131 -79 0 9 44
42 57 43 21 0 73 51 73 71 0 11 8 22 18 25 9 3 24 9 32 14 22 13 24 12 10 -5z
m537 -1 c-3 -3 -12 -4 -19 -1 -8 3 -5 6 6 6 11 1 17 -2 13 -5z m258 -4 c-65
-10 -105 -30 -111 -55 -11 -45 21 -78 101 -102 l40 -13 -50 6 c-86 9 -124 53
-99 112 16 39 62 62 119 60 l40 -1 -40 -7z m-322 -7 c-7 -2 -19 -2 -25 0 -7 3
-2 5 12 5 14 0 19 -2 13 -5z m457 -85 c0 -27 -4 -48 -8 -48 -23 0 -44 114 -25
134 13 13 32 -39 33 -86z m-1072 65 c2 -8 -6 -13 -22 -13 -25 0 -33 10 -19 24
10 10 36 3 41 -11z m957 4 c13 -10 16 -21 12 -40 -6 -20 -15 -27 -47 -32 -22
-4 -38 -11 -34 -16 9 -15 -13 -10 -26 5 -13 17 -10 56 5 58 6 0 21 9 34 19 28
23 32 23 56 6z m-212 -14 c-7 -2 -19 -2 -25 0 -7 3 -2 5 12 5 14 0 19 -2 13
-5z m-560 -37 c-74 -49 -73 -48 -73 -38 0 13 91 72 110 72 8 0 -9 -15 -37 -34z
m506 30 c-11 -9 -129 -15 -129 -6 0 6 30 10 67 10 36 0 64 -2 62 -4z m80 -25
c10 -6 2 -9 -23 -9 -20 0 -36 4 -36 9 0 12 41 11 59 0z m-104 -11 c26 -7 23
-8 -20 -8 -27 0 -59 3 -70 8 -26 11 46 11 90 0z m-776 -95 c1 -48 -8 -85 -20
-85 -10 0 -12 103 -2 139 6 23 7 23 14 5 4 -10 8 -37 8 -59z m864 58 c-7 -2
-19 -2 -25 0 -7 3 -2 5 12 5 14 0 19 -2 13 -5z m-673 -25 c0 -16 -3 -19 -11
-11 -6 6 -8 16 -5 22 11 17 16 13 16 -11z m598 15 c-10 -2 -28 -2 -40 0 -13 2
-5 4 17 4 22 1 32 -1 23 -4z m-98 -10 c-8 -3 -18 -10 -21 -15 -3 -5 -9 -3 -12
6 -5 12 0 16 21 15 16 0 21 -3 12 -6z m-541 -70 c-29 -49 -37 -58 -45 -50 -8
8 45 87 58 87 5 0 0 -17 -13 -37z m729 -10 c-21 -2 -55 -2 -75 0 -21 2 -4 4
37 4 41 0 58 -2 38 -4z m-348 -7 c0 -2 -7 -7 -16 -10 -8 -3 -12 -2 -9 4 6 10
25 14 25 6z m169 0 c-2 -2 -33 -14 -69 -26 -36 -12 -77 -33 -92 -48 -16 -14
-28 -21 -28 -16 0 22 65 68 119 85 28 8 77 12 70 5z m96 -46 c10 -11 16 -20
13 -20 -3 0 -13 9 -23 20 -10 11 -16 20 -13 20 3 0 13 -9 23 -20z m225 -44
c-7 -7 -14 -6 -21 1 -9 9 -7 12 9 10 14 -1 18 -5 12 -11z"/>
<path d="M1216 3873 c-6 -14 -5 -15 5 -6 7 7 10 15 7 18 -3 3 -9 -2 -12 -12z"/>
<path d="M2433 3631 c-36 -40 -43 -51 -42 -68 0 -11 2 -13 6 -5 4 10 9 9 19
-5 13 -17 14 -16 8 8 -4 20 1 33 20 54 14 15 26 30 26 31 0 11 -22 2 -37 -15z"/>
<path d="M2621 3633 c8 -10 20 -24 27 -32 8 -8 11 -24 8 -40 -6 -25 -6 -25 9
-7 8 11 15 25 15 32 0 19 -40 64 -57 64 -13 0 -14 -2 -2 -17z"/>
<path d="M2481 3604 c0 -11 3 -14 6 -6 3 7 2 16 -1 19 -3 4 -6 -2 -5 -13z"/>
<path d="M2596 3605 c4 -8 8 -15 10 -15 2 0 4 7 4 15 0 8 -4 15 -10 15 -5 0
-7 -7 -4 -15z"/>
<path d="M2400 3531 c0 -6 4 -13 10 -16 6 -3 7 1 4 9 -7 18 -14 21 -14 7z"/>
<path d="M2105 3620 c3 -5 8 -10 11 -10 2 0 4 5 4 10 0 6 -5 10 -11 10 -5 0
-7 -4 -4 -10z"/>
<path d="M2183 3603 c9 -2 23 -2 30 0 6 3 -1 5 -18 5 -16 0 -22 -2 -12 -5z"/>
<path d="M2370 3121 c-16 -30 -12 -56 12 -77 13 -11 18 -13 12 -4 -5 8 -9 27
-9 41 0 22 4 26 21 23 12 -2 28 3 35 13 13 14 11 16 -18 11 -18 -2 -30 -1 -27
4 3 4 1 8 -5 8 -6 0 -15 -9 -21 -19z"/>
<path d="M2225 3095 c11 -9 29 -21 40 -26 l20 -10 -20 16 c-11 9 -29 21 -40
26 l-20 10 20 -16z"/>
<path d="M2071 3056 c2 -2 15 -9 29 -15 24 -11 24 -11 6 3 -16 13 -49 24 -35
12z"/>
<path d="M2137 3017 c4 -6 0 -8 -10 -4 -24 9 -21 0 4 -14 15 -8 19 -8 15 0 -9
14 0 14 27 -1 19 -10 20 -9 9 4 -15 18 -56 32 -45 15z"/>
<path d="M2060 3016 c0 -2 7 -7 16 -10 8 -3 12 -2 9 4 -6 10 -25 14 -25 6z"/>
<path d="M2079 2982 c9 -7 10 -11 2 -13 -7 -3 3 -12 21 -22 25 -14 28 -14 13
-2 -11 9 -20 21 -20 27 0 6 -7 13 -15 15 -12 4 -12 3 -1 -5z"/>
<path d="M2095 2890 c3 -5 11 -10 16 -10 6 0 7 5 4 10 -3 6 -11 10 -16 10 -6
0 -7 -4 -4 -10z"/>
<path d="M2595 2740 c-3 -6 1 -7 9 -4 18 7 21 14 7 14 -6 0 -13 -4 -16 -10z"/>
<path d="M2953 2669 c9 -6 14 -15 11 -21 -4 -6 -1 -9 6 -6 8 2 16 10 18 18 3
7 0 10 -6 6 -6 -3 -13 -2 -17 4 -3 5 -12 10 -18 10 -7 0 -4 -5 6 -11z"/>
<path d="M2095 2560 c-4 -6 -11 -7 -17 -4 -6 4 -6 -2 1 -15 7 -11 16 -20 22
-18 6 1 17 -8 26 -20 13 -19 13 -21 -1 -19 -8 1 -19 6 -23 11 -4 4 -2 5 5 1
14 -8 17 10 3 19 -5 3 -12 -4 -16 -15 -4 -12 -11 -17 -18 -14 -7 4 -8 3 -4 -2
5 -5 13 -10 18 -10 5 -1 11 -3 14 -4 3 -1 11 -3 18 -4 6 0 15 -19 18 -41 6
-36 7 -35 6 15 -1 40 -7 63 -23 86 -13 17 -20 34 -17 38 4 3 4 6 0 6 -3 0 -9
-5 -12 -10z"/>
<path d="M2153 2330 c0 -30 2 -43 4 -27 2 15 2 39 0 55 -2 15 -4 2 -4 -28z"/>
<path d="M2402 2484 c-11 -7 -21 -11 -24 -9 -2 2 -4 -4 -5 -13 -1 -9 -5 -31
-8 -48 -15 -68 75 -122 185 -111 36 4 50 3 40 -3 -8 -5 -10 -10 -5 -10 6 0 16
4 23 9 10 6 5 11 -19 20 -39 13 -49 14 -29 1 11 -7 0 -10 -37 -10 -29 0 -53 4
-53 10 0 5 -6 7 -12 5 -19 -7 -58 56 -57 91 0 27 1 28 9 7 5 -13 12 -23 14
-23 3 0 3 7 0 15 -3 8 5 25 18 38 12 14 24 28 25 33 2 14 -44 13 -65 -2z m28
2 c0 -2 -8 -10 -17 -17 -16 -13 -17 -12 -4 4 13 16 21 21 21 13z"/>
<path d="M2584 2478 c20 -17 26 -27 17 -32 -7 -4 -10 -2 -9 5 2 6 -3 14 -11
17 -8 2 -11 0 -7 -6 4 -6 -2 -8 -16 -4 -22 5 -22 5 -5 -12 9 -10 17 -29 17
-42 0 -21 2 -23 13 -12 7 7 16 21 20 31 4 10 11 15 17 12 18 -11 10 -55 -14
-80 -20 -20 -21 -25 -8 -30 22 -8 63 33 57 59 -3 12 -7 36 -8 54 -4 34 -10 44
-30 48 -7 2 -23 6 -37 10 -25 6 -25 6 4 -18z m66 -112 c0 -2 -8 -10 -17 -17
-16 -13 -17 -12 -4 4 13 16 21 21 21 13z"/>
<path d="M2447 2453 c-4 -3 -7 -16 -7 -27 0 -17 2 -18 9 -6 6 8 7 18 5 22 -3
4 1 5 9 2 8 -3 18 -1 22 5 7 12 -27 15 -38 4z"/>
<path d="M2611 2414 c0 -11 3 -14 6 -6 3 7 2 16 -1 19 -3 4 -6 -2 -5 -13z"/>
<path d="M2040 2126 c0 -3 9 -10 20 -16 11 -6 20 -8 20 -6 0 3 -9 10 -20 16
-11 6 -20 8 -20 6z"/>
<path d="M2200 2126 c0 -2 7 -7 16 -10 8 -3 12 -2 9 4 -6 10 -25 14 -25 6z"/>
<path d="M2220 2090 c8 -5 20 -10 25 -10 6 0 3 5 -5 10 -8 5 -19 10 -25 10 -5
0 -3 -5 5 -10z"/>
<path d="M2225 2060 c3 -5 12 -7 20 -3 21 7 19 13 -6 13 -11 0 -18 -4 -14 -10z"/>
<path d="M2205 2010 c-10 -11 -11 -27 -5 -58 10 -59 30 -79 23 -23 -6 44 11
75 52 92 15 6 10 7 -18 6 -21 -1 -44 -9 -52 -17z m13 -10 c-7 -10 -14 -17 -17
-15 -4 4 18 35 25 35 2 0 -1 -9 -8 -20z"/>
<path d="M2355 2020 c12 -4 27 -16 35 -26 13 -17 13 -18 0 -9 -8 6 -28 12 -45
13 -28 2 -29 1 -8 -9 12 -7 26 -23 31 -38 9 -25 10 -25 18 -6 5 11 15 21 22
23 14 2 17 -34 3 -42 -5 -3 -11 -15 -14 -27 -6 -21 -5 -21 19 2 19 18 25 32
22 56 -2 17 0 29 4 27 4 -3 9 -15 9 -27 1 -16 3 -17 6 -5 6 22 -12 55 -38 69
-17 9 -20 8 -14 -3 6 -10 5 -11 -6 0 -7 6 -24 12 -38 11 -24 0 -24 -1 -6 -9z"/>
<path d="M2252 1994 c-16 -11 -22 -24 -21 -47 2 -30 2 -31 6 -4 5 30 33 38 34
10 0 -14 2 -15 6 -3 3 8 13 21 22 29 14 12 12 13 -14 8 -27 -5 -28 -4 -10 9
26 19 5 18 -23 -2z"/>
<path d="M2785 2130 c27 -12 43 -12 25 0 -8 5 -22 9 -30 9 -10 0 -8 -3 5 -9z"/>
<path d="M2798 2073 c7 -3 16 -2 19 1 4 3 -2 6 -13 5 -11 0 -14 -3 -6 -6z"/>
<path d="M2949 1733 l-24 -28 30 25 c17 14 32 26 34 28 2 1 0 2 -6 2 -5 0 -20
-12 -34 -27z"/>
<path d="M2902 1590 c0 -14 2 -19 5 -12 2 6 2 18 0 25 -3 6 -5 1 -5 -13z"/>
<path d="M3313 2405 c0 -22 2 -30 4 -17 2 12 2 30 0 40 -3 9 -5 -1 -4 -23z"/>
<path d="M2488 1623 c7 -3 16 -2 19 1 4 3 -2 6 -13 5 -11 0 -14 -3 -6 -6z"/>
<path d="M2428 1565 c-20 -7 -58 -26 -83 -41 -45 -26 -46 -26 -68 -8 l-22 19
22 -26 c16 -18 20 -28 12 -36 -7 -7 -7 -13 -1 -17 5 -3 15 1 22 9 7 8 9 15 4
15 -5 0 13 16 40 35 27 19 57 35 65 35 9 0 1 -9 -16 -20 -18 -11 -33 -23 -33
-26 0 -3 12 2 27 12 16 10 53 26 83 35 30 10 48 18 40 19 -8 0 -24 2 -35 5
-11 2 -37 -2 -57 -10z m47 -5 c-11 -5 -27 -9 -35 -9 -9 0 -8 4 5 9 11 5 27 9
35 9 9 0 8 -4 -5 -9z"/>
<path d="M2260 1435 c-7 -9 -10 -18 -7 -21 3 -3 10 4 17 15 13 25 8 27 -10 6z"/>
<path d="M2224 1375 c-9 -14 -15 -27 -13 -30 3 -2 12 10 21 26 21 36 15 39 -8
4z"/>
</g>
</svg>
